<svg width="26" height="24" viewBox="0 0 26 24" fill="none" xmlns="http://www.w3.org/2000/svg">
<path d="M0.00730772 1.09071C-0.0573976 0.557081 0.314519 0.072013 0.848144 0.00730771C1.38177 -0.0573976 1.86684 0.314519 1.93154 0.848144L2.51367 5.35959C4.71282 2.09325 8.43193 0.0719576 12.4421 0.0719576C17.5519 0.0719576 22.0957 3.32215 23.7612 8.14087C23.9391 8.64214 23.6642 9.19191 23.1629 9.36977C23.0659 9.40212 22.9527 9.41827 22.8395 9.41827C22.4353 9.41827 22.0633 9.15956 21.9178 8.77144C20.5272 4.72891 16.7111 2.01234 12.4422 2.01234C8.94941 2.01234 5.69921 3.85572 3.88818 6.7987L8.7392 6.24893C9.27282 6.18422 9.75789 6.57234 9.80645 7.10597C9.85495 7.63959 9.48303 8.12466 8.94941 8.17322L1.96389 8.96555C1.93154 8.96555 1.88304 8.96555 1.85069 8.96555C1.36556 8.96555 0.945147 8.60978 0.896645 8.12472L0.00730772 1.09071ZM24.0361 14.0753L17.0506 14.8676C16.5169 14.9323 16.1289 15.4012 16.1935 15.9349C16.2582 16.4685 16.7271 16.8565 17.2608 16.7919L21.4812 16.323C19.8318 19.7995 16.3229 22.0472 12.4259 22.0472C8.04381 22.0472 4.09828 19.1204 2.83703 14.9323C2.67532 14.4149 2.1417 14.1238 1.62427 14.2855C1.10685 14.4471 0.815791 14.9808 0.977444 15.4982C1.70507 17.9076 3.22509 20.0744 5.23018 21.5944C7.31612 23.1629 9.80634 24.0037 12.4259 24.0037C17.2123 24.0037 21.4974 21.1578 23.3892 16.8403L24.0684 22.225C24.1331 22.7101 24.5535 23.0658 25.0224 23.0658C25.0709 23.0658 25.1033 23.0658 25.1518 23.0658C25.6854 23.0011 26.0573 22.516 25.9926 21.9824L25.0871 14.9485C25.0386 14.3987 24.5697 14.0268 24.0361 14.0753Z" fill="white"/>
</svg>
