<svg width="35" height="35" viewBox="0 0 35 35" fill="none" xmlns="http://www.w3.org/2000/svg">
<path d="M22.7309 20.7577C22.7309 23.6466 20.3891 25.9884 17.5002 25.9884C14.6113 25.9884 12.2694 23.6466 12.2694 20.7577C12.2694 17.8688 14.6113 15.5269 17.5002 15.5269C20.3891 15.5269 22.7309 17.8688 22.7309 20.7577Z" fill="white"/>
<path d="M27.9617 7.68078H26.1572L24.6271 4.62085C24.3019 3.96672 23.7999 3.41651 23.1784 3.03294C22.5567 2.64939 21.8401 2.4474 21.1094 2.45003H13.8908C13.1602 2.4474 12.4436 2.64939 11.8218 3.03294C11.2003 3.41649 10.6983 3.96671 10.3731 4.62085L8.84293 7.68078H7.03847C5.30432 7.68078 3.64138 8.36965 2.41514 9.59591C1.18889 10.8222 0.5 12.4851 0.5 14.2192V25.9885C0.5 27.7226 1.18888 29.3855 2.41514 30.6118C3.64139 31.838 5.30432 32.5269 7.03847 32.5269H27.9616C29.6957 32.5269 31.3587 31.838 32.5849 30.6118C33.8111 29.3855 34.5 27.7226 34.5 25.9885V14.2192C34.5 12.4851 33.8111 10.8221 32.5849 9.59591C31.3586 8.36967 29.6957 7.68078 27.9616 7.68078H27.9617ZM14.8848 6.37308H20.1155C20.5829 6.37308 21.0146 6.62236 21.2481 7.02693C21.4816 7.4315 21.4816 7.93006 21.2481 8.33462C21.0146 8.73918 20.5829 8.98847 20.1155 8.98847H14.8848C14.4175 8.98847 13.9858 8.73919 13.7522 8.33462C13.5187 7.93005 13.5187 7.43149 13.7522 7.02693C13.9858 6.62237 14.4175 6.37308 14.8848 6.37308ZM17.5002 28.6038C15.4192 28.6038 13.4235 27.7772 11.9521 26.3057C10.4807 24.8342 9.654 22.8386 9.654 20.7577C9.654 18.6767 10.4806 16.6811 11.9521 15.2096C13.4236 13.7382 15.4192 12.9115 17.5002 12.9115C19.5811 12.9115 21.5768 13.7382 23.0482 15.2096C24.5196 16.6811 25.3463 18.6767 25.3463 20.7577C25.3463 22.8386 24.5197 24.8343 23.0482 26.3057C21.5767 27.7772 19.5811 28.6038 17.5002 28.6038Z" fill="white"/>
</svg>
