<svg width="35" height="35" viewBox="0 0 35 35" fill="none" xmlns="http://www.w3.org/2000/svg">
<path d="M29.3819 20.1415L23.7629 13.6994C23.0471 12.8763 21.7587 12.8763 21.0429 13.6994L15.0661 20.5352L12.3462 17.5647C11.7021 16.849 10.5567 16.849 9.9126 17.5647L5.61793 22.289L5.61743 26.0824H29.3458V20.1415H29.3819Z" fill="white"/>
<path d="M11.1294 11.9815C11.1294 13.3454 10.0237 14.4508 8.65985 14.4508C7.29601 14.4508 6.19031 13.3454 6.19031 11.9815C6.19031 10.6174 7.29601 9.51199 8.65985 9.51199C10.0237 9.51199 11.1294 10.6174 11.1294 11.9815Z" fill="white"/>
<path d="M32.9609 3.75H2.03882C1.17981 3.75 0.5 4.43007 0.5 5.28882V29.6972C0.5 30.5563 1.18006 31.2361 2.03882 31.2361H32.9609C33.8199 31.2361 34.4997 30.556 34.4997 29.6972L34.5 5.28882C34.5 4.43 33.8199 3.75 32.9612 3.75H32.9609ZM31.4218 28.1584H3.57764V6.8279H31.4218V28.1584Z" fill="white"/>
</svg>
