<svg width="20" height="20" viewBox="0 0 20 20" fill="none" xmlns="http://www.w3.org/2000/svg">
<path d="M15.6256 7.43681C16.6118 7.43681 17.5576 7.04504 18.2549 6.34768C18.9523 5.65031 19.344 4.70461 19.344 3.7184C19.344 2.7322 18.9523 1.78649 18.2549 1.08913C17.5575 0.391771 16.6118 0 15.6256 0C14.6394 0 13.6937 0.391762 12.9964 1.08913C12.299 1.7865 11.9072 2.7322 11.9072 3.7184C11.9122 4.11033 11.9799 4.4991 12.1081 4.86962L9.31182 6.47002C8.4174 5.32246 7.08341 4.60151 5.6334 4.48184C4.18339 4.36232 2.74949 4.85518 1.6791 5.84087C0.608883 6.82639 0 8.21499 0 9.66997C0 11.125 0.608883 12.5136 1.6791 13.4992C2.74949 14.4849 4.18339 14.9778 5.6334 14.8581C7.08341 14.7386 8.4174 14.0177 9.31182 12.8701L12.1081 14.4684V14.4682C11.9803 14.8381 11.9124 15.226 11.9072 15.6173C11.894 16.8028 12.4406 17.9253 13.3821 18.6459C14.3237 19.3666 15.55 19.6008 16.6908 19.2782C17.8319 18.9557 18.7539 18.1141 19.1789 17.007C19.6037 15.9002 19.4816 14.6577 18.8497 13.6545C18.2176 12.6514 17.1495 12.0051 15.9676 11.9105C14.7857 11.816 13.6285 12.2843 12.845 13.1742L10.0517 11.5783C10.5426 10.3519 10.5426 8.98371 10.0517 7.75732L12.845 6.16138C13.544 6.96829 14.558 7.43345 15.6257 7.43677L15.6256 7.43681Z" fill="#2DDA93"/>
</svg>
