<svg width="20" height="20" viewBox="0 0 20 20" fill="none" xmlns="http://www.w3.org/2000/svg">
<path d="M2.24176 0H6.72527C7.96341 0 8.96703 1.23813 8.96703 2.24176V6.72527C8.96703 7.96341 7.96341 8.96703 6.72527 8.96703H2.24176C1.00362 8.96703 0 7.7289 0 6.72527V2.24176C0 1.00362 1.00362 0 2.24176 0Z" fill="#2DDA93"/>
<path d="M2.24176 10.4615H6.72527C7.96341 10.4615 8.96703 11.6997 8.96703 12.7033V17.1868C8.96703 18.425 7.96341 19.4286 6.72527 19.4286H2.24176C1.00362 19.4286 0 18.1904 0 17.1868V12.7033C0 11.4652 1.00362 10.4615 2.24176 10.4615Z" fill="#2DDA93"/>
<path d="M12.7033 0H17.1868C18.425 0 19.4286 1.23813 19.4286 2.24176V6.72527C19.4286 7.96341 18.425 8.96703 17.1868 8.96703H12.7033C11.4652 8.96703 10.4615 7.7289 10.4615 6.72527V2.24176C10.4615 1.00362 11.4652 0 12.7033 0Z" fill="#2DDA93"/>
<path d="M19.4286 14.9451C19.4286 17.4212 17.4212 19.4286 14.9451 19.4286C12.469 19.4286 10.4615 17.4212 10.4615 14.9451C10.4615 12.469 12.469 10.4615 14.9451 10.4615C17.4212 10.4615 19.4286 12.469 19.4286 14.9451Z" fill="#2DDA93"/>
</svg>
