<svg width="30" height="30" viewBox="0 0 30 30" fill="none" xmlns="http://www.w3.org/2000/svg">
<g clip-path="url(#clip0_3_2)">
<path d="M12.9184 0.428558C12.1495 0.428558 11.5307 1.04762 11.5307 1.81621V3.72446C10.8127 3.94469 10.1232 4.22373 9.47076 4.57001L8.12641 3.22567C7.58286 2.68212 6.70778 2.68212 6.16395 3.22567L3.2257 6.16391C2.68215 6.70746 2.68215 7.58254 3.2257 8.12637L4.57005 9.47072C4.22349 10.1232 3.94468 10.8126 3.7245 11.5307H1.81624C1.04739 11.5307 0.428589 12.1498 0.428589 12.9183V17.0816C0.428589 17.8505 1.04765 18.4693 1.81624 18.4693H3.7245C3.94473 19.1873 4.22376 19.8768 4.57005 20.5292L3.2257 21.8736C2.68215 22.4171 2.68215 23.2922 3.2257 23.836L6.16395 26.7743C6.7075 27.3178 7.58258 27.3178 8.12641 26.7743L9.47076 25.4299C10.1232 25.7765 10.8127 26.0553 11.5307 26.2755V28.1837C11.5307 28.9526 12.1498 29.5714 12.9184 29.5714H17.0817C17.8505 29.5714 18.4693 28.9523 18.4693 28.1837V26.2755C19.184 26.0555 19.8689 25.7748 20.5184 25.4299L21.8627 26.7743C22.4063 27.3178 23.2814 27.3178 23.8252 26.7743L26.7744 23.836C27.3179 23.2925 27.3179 22.4174 26.7744 21.8736L25.4191 20.5183C25.7635 19.8686 26.0563 19.1841 26.2756 18.4693H28.1838C28.9527 18.4693 29.5715 17.8502 29.5715 17.0816V12.9183C29.5715 12.1495 28.9524 11.5307 28.1838 11.5307H26.2756C26.0561 10.8158 25.7635 10.1314 25.4191 9.48162L26.7744 8.12637C27.3179 7.58282 27.3179 6.70774 26.7744 6.16391L23.8252 3.22567C23.2817 2.68212 22.4066 2.68212 21.8627 3.22567L20.5184 4.57001C19.8691 4.22515 19.1842 3.9444 18.4696 3.72446V1.81621C18.4696 1.04736 17.8505 0.428558 17.0819 0.428558H12.9184ZM15.0002 8.40826C18.6407 8.40826 21.5921 11.3596 21.5921 15.0002C21.5921 18.6408 18.6408 21.5921 15.0002 21.5921C11.3596 21.5921 8.40825 18.6408 8.40825 15.0002C8.40825 11.3596 11.3596 8.40826 15.0002 8.40826Z" fill="white"/>
</g>
<defs>
<clipPath id="clip0_3_2">
<rect width="30" height="30" fill="white"/>
</clipPath>
</defs>
</svg>
