<svg width="20" height="20" viewBox="0 0 20 20" fill="none" xmlns="http://www.w3.org/2000/svg">
<path d="M18.3676 4.4529C16.2687 4.11278 14.7366 2.38059 14.7449 0.35748L14.7453 0.285721H5.22944L5.22974 0.357332C5.23834 2.38041 3.70616 4.11286 1.60747 4.45313H1.60718C1.35364 15.3035 7.86911 18.8858 9.58054 19.6381C9.83629 19.7505 10.1297 19.7379 10.3754 19.605C12.0481 18.7004 18.5514 14.5303 18.3677 4.45309L18.3676 4.4529ZM9.98542 14.4713C7.15134 14.4713 4.84583 12.1837 4.84583 9.37158C4.84583 6.55959 7.15149 4.27185 9.98542 4.27185C12.8193 4.27185 15.125 6.55944 15.125 9.37158C15.125 12.1834 12.8193 14.4713 9.98542 14.4713Z" fill="#2DDA93"/>
<path d="M9.98547 5.60866C7.89715 5.60866 6.19836 7.29666 6.19836 9.37133C6.19836 11.4461 7.89734 13.134 9.98547 13.134C12.0738 13.134 13.7726 11.446 13.7726 9.37133C13.7726 7.29666 12.0738 5.60866 9.98547 5.60866ZM9.73832 11.1365C9.46477 11.4131 8.99583 11.3978 8.74122 11.1042L7.44006 9.60348L8.4671 8.73361L9.28759 9.67985L11.5646 7.37775L12.5317 8.31226L9.73832 11.1365Z" fill="#2DDA93"/>
</svg>
